<svg width="100" height="100" viewBox="0 0 100 100" fill="none" xmlns="http://www.w3.org/2000/svg">
<rect x="3.8147e-06" width="100" height="100" rx="10" fill="#0C0E0C"/>
<path fill-rule="evenodd" clip-rule="evenodd" d="M53.4132 100H5.51923C2.47015 100 3.8147e-06 97.5283 3.8147e-06 94.4804V5.5192C3.8147e-06 2.47053 2.47054 0 5.51923 0H94.4812C97.5291 0 100 2.47053 100 5.5192V94.4804C100 97.5287 97.5287 100 94.4812 100H68.9986V61.2745H81.9969L83.9432 46.1825H68.9986V36.5472C68.9986 32.1777 70.2119 29.2 76.4777 29.2L84.4694 29.1965V15.6981C83.0873 15.5142 78.3433 15.1033 72.8241 15.1033C61.3017 15.1033 53.4132 22.1365 53.4132 35.0525V46.1825H40.3815V61.2745H53.4132V100Z" fill="#A08B63"/>
</svg>
