<?xml version="1.0" encoding="UTF-8"?>
<svg id="Layer_2" data-name="Layer 2" xmlns="http://www.w3.org/2000/svg" viewBox="0 0 393.53 120.41">
  <defs>
    <style>
      .cls-1, .cls-2 {
        fill: #fff;
      }

      .cls-1, .cls-3 {
        font-family: Vipnagorgialla-Bold, Vipnagorgialla;
        font-size: 21px;
        font-weight: 700;
      }

      .cls-4 {
        letter-spacing: -.14em;
      }

      .cls-3 {
        fill: #7a804d;
      }

      .cls-5 {
        letter-spacing: -.12em;
      }

      .cls-6 {
        fill: #a28c63;
      }
    </style>
  </defs>
  <g id="Layer_1-2" data-name="Layer 1">
    <g>
      <circle class="cls-2" cx="80.35" cy="44.53" r="4.39"/>
      <circle class="cls-2" cx="110.74" cy="44.53" r="4.39"/>
      <path class="cls-2" d="M95.04,69.63l-5.12-10.73.31-.3,4.81-4.82,5.12,5.12-.19.39-4.93,10.34ZM91.4,59.15l3.65,7.67,3.66-7.67-3.66-3.66-3.65,3.66Z"/>
      <path class="cls-2" d="M95.04,43.51c-.48,0-.91-.34-.99-.83-.02-.09-2.01-9.6-18.94-18.31C57.19,15.14,55.92,7.99,55.87,7.69c-.08-.55.3-1.07.85-1.15.54-.06,1.06.3,1.14.84.03.16,1.52,6.63,18.17,15.2,17.91,9.22,19.92,19.32,20,19.74.1.55-.27,1.07-.81,1.18-.06,0-.13.02-.18.02Z"/>
      <path class="cls-2" d="M79.88,58.59c-.19,0-.39,0-.58-.02-5.38-.21-10.27-3.18-12.45-7.59-2.53-5.14-1.29-11.71,3.52-18.52.32-.46.96-.54,1.41-.24.46.32.56.96.24,1.41-5.59,7.91-4.92,13.32-3.36,16.46,1.85,3.75,6.05,6.28,10.71,6.47.17,0,.34,0,.51,0,3.8,0,7.06-1.68,8.76-4.55,2.07-3.48,2.49-6.84,1.29-10.01-1.97-5.13-8.43-9.86-17.29-12.64-12.24-3.84-16.2-12.5-16.36-12.87-.23-.51,0-1.11.51-1.33.5-.21,1.11,0,1.33.51.04.08,3.8,8.21,15.12,11.76,4.54,1.42,15.43,5.62,18.58,13.85,1.44,3.77.96,7.72-1.44,11.75-2.07,3.5-5.97,5.54-10.5,5.54Z"/>
      <path class="cls-2" d="M91.55,45.54c-.36,0-.72-.2-.9-.55-2.76-5.4-8.07-7.34-16.11-10.29-1.56-.58-3.23-1.18-5-1.87-11.38-4.36-13.52-9.51-13.61-9.73-.21-.52.05-1.11.57-1.31.5-.21,1.11.04,1.31.56.06.13,2.13,4.63,12.46,8.59,1.75.68,3.41,1.29,4.97,1.86,8.49,3.11,14.1,5.17,17.22,11.27.25.5.06,1.11-.44,1.36-.14.08-.3.11-.46.11Z"/>
      <path class="cls-2" d="M88.51,99.83c-2.47-3.8-5.59-5.3-9.2-7.05-5.87-2.83-12.52-6.05-18.48-19.67-9.65-22.03,3.54-43.55,3.69-43.77.28-.47.92-.62,1.39-.32s.62.92.32,1.4c-.09.13-5.12,8.36-6.54,19.69.09.19.21.47.36.83,5.15,9.82,35.14,24.84,35.45,24.99l1.25.62-.98.99c-2.08,2.12-3.56,4.25-4.57,6.29-.03.09-.07.17-.13.24-3.76,7.82-.95,14.44-.79,14.79l-1.77.96ZM59.35,54.23c-.21,5.64.6,11.83,3.32,18.07,5.67,12.93,11.96,15.97,17.51,18.65,2.54,1.23,4.99,2.42,7.17,4.4-.38-2.91-.32-7.02,1.62-11.47-3.24-2.22-16.55-11.47-21.4-16.74-3.49-3.78-6.47-9.3-8.22-12.91ZM63.74,58.23c1.52,2.64,3.35,5.42,5.31,7.55,4.54,4.93,17.26,13.82,20.82,16.27.88-1.62,2.04-3.28,3.51-4.92-4.58-2.35-20.57-10.81-29.64-18.9Z"/>
      <path class="cls-2" d="M88.32,90.13c-.13,0-.28-.02-.4-.09-.26-.11-6.5-2.87-12.54-7.7-5.19-4.15-8.68-7.69-10.39-10.52-.28-.48-.13-1.1.35-1.39.47-.27,1.11-.13,1.39.35,1.56,2.59,4.98,6.04,9.92,9.98,5.83,4.67,12.02,7.4,12.09,7.43.51.22.75.82.52,1.33-.17.38-.54.61-.92.61Z"/>
      <path class="cls-2" d="M77.35,63.82c-4.13,0-11.28-1.39-13.21-10.62-2.25-10.75,4.97-21.31,5.28-21.75.32-.47.95-.58,1.41-.25.46.32.57.95.25,1.41-.07.1-7.03,10.29-4.97,20.19,2.17,10.33,11.75,9.17,13.67,8.82,3.29-.58,6.08-1.07,9.13-5.75,2.39-3.67,1.86-11.34,1.41-12.66-.22-.24-.32-.57-.25-.9.11-.55.66-.88,1.19-.78.33.06.77.51.89.82.64,1.55,1.36,10.16-1.55,14.63-3.52,5.42-7.02,6.04-10.4,6.63-.36.06-1.42.23-2.84.23Z"/>
      <path class="cls-2" d="M89.48,100.71c-.18,0-.36-.05-.52-.14-.47-.29-.63-.91-.35-1.39l5.06-8.44-3.76-6.88c-.27-.49-.09-1.1.4-1.37.47-.27,1.11-.1,1.37.4l4.31,7.89-5.64,9.43c-.19.32-.53.49-.87.49Z"/>
      <path class="cls-2" d="M95.04,43.51c-.06,0-.12,0-.18-.02-.55-.1-.91-.62-.81-1.18.08-.43,2.08-10.52,20-19.74,16.78-8.63,18.16-15.13,18.17-15.2.09-.54.61-.91,1.16-.82.54.09.92.59.84,1.14-.05.3-1.31,7.45-19.24,16.68-16.93,8.71-18.92,18.21-18.94,18.31-.09.49-.52.83-.99.83Z"/>
      <path class="cls-2" d="M110.22,58.59c-4.54,0-8.43-2.04-10.51-5.54-2.39-4.03-2.87-7.99-1.44-11.76,3.16-8.23,14.04-12.42,18.58-13.84,11.3-3.55,15.07-11.68,15.11-11.76.23-.52.84-.73,1.33-.51.51.23.74.82.51,1.33-.17.36-4.13,9.03-16.36,12.87-8.86,2.78-15.32,7.5-17.29,12.64-1.22,3.16-.78,6.53,1.28,10.01,1.78,2.99,5.34,4.6,9.28,4.54,4.66-.18,8.87-2.72,10.71-6.47,1.56-3.14,2.23-8.55-3.36-16.46-.32-.46-.21-1.09.24-1.41.46-.3,1.08-.21,1.41.24,4.81,6.8,6.05,13.38,3.52,18.52-2.17,4.4-7.06,7.38-12.45,7.59-.2,0-.39.02-.58.02Z"/>
      <path class="cls-2" d="M98.53,45.54c-.16,0-.32-.03-.46-.11-.5-.25-.69-.86-.44-1.36,3.12-6.1,8.73-8.16,17.22-11.27,1.56-.57,3.21-1.18,4.97-1.85,10.41-4,12.43-8.56,12.45-8.6.22-.51.8-.76,1.32-.55.51.21.77.79.56,1.3-.09.21-2.23,5.37-13.6,9.73-1.77.68-3.43,1.29-5,1.86-8.04,2.94-13.36,4.89-16.12,10.29-.18.36-.54.55-.9.55Z"/>
      <path class="cls-2" d="M101.59,99.83l-1.77-.96c.15-.35,2.96-6.95-.8-14.78-.06-.09-.09-.17-.13-.26-1.02-2.04-2.49-4.17-4.57-6.28l-.98-.99,1.25-.62c.32-.15,30.32-15.18,35.46-24.99.16-.36.28-.63.36-.82-1.42-11.34-6.46-19.57-6.54-19.7-.29-.47-.15-1.1.32-1.39.48-.31,1.11-.15,1.39.32.14.21,13.34,21.73,3.69,43.77-5.96,13.62-12.61,16.83-18.47,19.67-3.62,1.74-6.73,3.25-9.2,7.05ZM101.12,83.89c1.93,4.45,2.01,8.56,1.62,11.47,2.18-1.99,4.63-3.17,7.17-4.4,5.55-2.68,11.84-5.72,17.51-18.65,2.72-6.23,3.54-12.43,3.33-18.06-1.75,3.62-4.74,9.13-8.23,12.91-4.85,5.27-18.16,14.52-21.4,16.74ZM96.71,77.13c1.48,1.64,2.63,3.3,3.51,4.92,3.55-2.45,16.28-11.34,20.82-16.27,1.97-2.13,3.8-4.91,5.32-7.55-9.08,8.09-25.07,16.55-29.65,18.9Z"/>
      <path class="cls-2" d="M101.77,90.13c-.39,0-.76-.23-.92-.61-.23-.51,0-1.11.52-1.33.06-.03,6.26-2.76,12.09-7.43,4.93-3.93,8.35-7.38,9.91-9.98.29-.49.91-.62,1.39-.35.48.29.63.91.35,1.39-1.71,2.83-5.2,6.38-10.38,10.52-6.05,4.83-12.29,7.59-12.55,7.7-.13.06-.27.09-.4.09Z"/>
      <path class="cls-2" d="M112.93,63.86c-1.02,0-2.02-.09-2.98-.26-3.44-.6-6.94-1.22-10.47-6.64-2.78-4.28-2.31-12.77-1.54-14.63.19-.47.49-.74.89-.82.62-.15,1.08.24,1.19.78.07.34-.03.67-.25.9-.47,1.32-.99,8.98,1.4,12.66,3.06,4.69,5.84,5.18,9.06,5.75,1.97.32,11.56,1.51,13.74-8.81,2.08-9.92-4.89-20.08-4.97-20.19-.32-.46-.21-1.09.25-1.41.44-.33,1.08-.21,1.41.25.31.44,7.54,11,5.28,21.75-1.67,7.95-7.53,10.66-13.02,10.66Z"/>
      <path class="cls-2" d="M100.61,100.71c-.34,0-.68-.17-.87-.49l-5.64-9.43,4.32-7.89c.26-.51.9-.67,1.37-.4.49.27.67.88.4,1.37l-3.77,6.88,5.06,8.44c.28.48.13,1.1-.35,1.39-.17.09-.34.14-.52.14Z"/>
      <path class="cls-2" d="M94.87,36.84c-1.86-3.72-6.63-10.51-19-16.89-.24-.08-.48-.24-.65-.4l-1.21-4.45.08-.16,5.74,1.21c.65.08.97,0,1.21-.57.4-.89.48-1.94.81-2.83l5.01,5.66c.97.89,1.7.08,1.54-1.05l-2.1-11.32c.08-.08.16,0,.24,0,.89.4,2.75,1.78,3.72,1.62.4-.08.73-.57.89-.89,1.21-2.02,2.18-4.37,3.39-6.47.16-.16.32-.48.4-.16,1.29,2.1,2.26,4.61,3.64,6.71.4.73.73,1.05,1.62.73l3.15-1.54c-.08.73-.24,1.54-.4,2.34-.48,2.83-1.29,5.98-1.62,8.81-.08.4-.16.97.16,1.37.4.4.89.16,1.29-.16l4.93-5.58q.08,0,.08.08c.4.65.48,1.86.81,2.59.24.57.65.73,1.21.65l5.58-1.21h.16c.08.08.08.24.08.32-.32,1.45-.81,2.91-1.21,4.36-.16.08-.32.24-.57.32-12.45,6.39-17.22,13.18-19,16.89Z"/>
      <path class="cls-6" d="M137.32,73.28c-5.74,17.62-22.39,30.39-41.87,30.39s-36.05-12.77-41.79-30.39h-6.22c5.9,21.02,25.14,36.46,48.02,36.46s42.2-15.44,48.1-36.46h-6.22Z"/>
      <path class="cls-6" d="M140.43,73.26h51.23s-2.41,6.34-5.25,7.37c-2.84,1.03-47.6.42-47.6.42l1.61-7.79Z"/>
      <path class="cls-6" d="M132.35,86.51h51.23s-2.41,6.34-5.25,7.37c-2.84,1.03-47.6.42-47.6.42l1.61-7.79Z"/>
      <path class="cls-6" d="M113.21,101.77h59.88s-2.41,6.34-5.25,7.37c-2.84,1.03-68.28.42-68.28.42l13.65-7.79Z"/>
      <path class="cls-6" d="M51.23,73.26H0s2.41,6.34,5.25,7.37c2.84,1.03,47.6.42,47.6.42l-1.61-7.79Z"/>
      <path class="cls-6" d="M59.32,86.51H8.08s2.41,6.34,5.25,7.37,47.6.42,47.6.42l-1.61-7.79Z"/>
      <path class="cls-6" d="M78.46,101.77H18.58s2.41,6.34,5.25,7.37c2.84,1.03,67.8.42,67.8.42l-13.17-7.79Z"/>
      <path class="cls-6" d="M95.08,113.1l65.03.09s-1.2,6.79-10.23,7.22h-54.8v-7.31Z"/>
      <path class="cls-6" d="M95.83,113.1l-65.03.09s1.2,6.79,10.23,7.22h54.8s0-7.31,0-7.31Z"/>
      <text class="cls-3" transform="translate(139.9 68.01)"><tspan x="0" y="0">LONDON </tspan><tspan class="cls-4" x="115.16" y="0">A</tspan><tspan x="130.66" y="0">VI</tspan><tspan class="cls-5" x="156.32" y="0">A</tspan><tspan x="172.24" y="0">TION</tspan></text>
      <text class="cls-1" transform="translate(196.13 86.92)"><tspan x="0" y="0">MUSEUM</tspan></text>
    </g>
  </g>
</svg>