<svg width="100" height="100" viewBox="0 0 100 100" fill="none" xmlns="http://www.w3.org/2000/svg">
<path d="M78.5714 0H21.4286C9.5939 0 0 9.5939 0 21.4286V78.5714C0 90.4061 9.5939 100 21.4286 100H78.5714C90.4061 100 100 90.4061 100 78.5714V21.4286C100 9.5939 90.4061 0 78.5714 0Z" fill="url(#paint0_radial_1_45)"/>
<path d="M75 30.3571C75 33.3157 72.6014 35.7143 69.6429 35.7143C66.6843 35.7143 64.2857 33.3157 64.2857 30.3571C64.2857 27.3985 66.6843 25 69.6429 25C72.6014 25 75 27.3985 75 30.3571Z" fill="#0C0E0C"/>
<path fill-rule="evenodd" clip-rule="evenodd" d="M50 67.8571C59.8622 67.8571 67.8572 59.8621 67.8572 50C67.8572 40.1379 59.8622 32.1429 50 32.1429C40.1379 32.1429 32.1429 40.1379 32.1429 50C32.1429 59.8621 40.1379 67.8571 50 67.8571ZM50 60.7143C55.9175 60.7143 60.7143 55.9175 60.7143 50C60.7143 44.0825 55.9175 39.2857 50 39.2857C44.0825 39.2857 39.2857 44.0825 39.2857 50C39.2857 55.9175 44.0825 60.7143 50 60.7143Z" fill="#0C0E0C"/>
<path fill-rule="evenodd" clip-rule="evenodd" d="M14.2857 48.5714C14.2857 36.5704 14.2857 30.5696 16.6213 25.9859C18.6757 21.9538 21.9539 18.6757 25.9859 16.6213C30.5697 14.2857 36.5704 14.2857 48.5714 14.2857H51.4286C63.4297 14.2857 69.4304 14.2857 74.0139 16.6213C78.0461 18.6757 81.3243 21.9538 83.3786 25.9859C85.7143 30.5696 85.7143 36.5704 85.7143 48.5714V51.4286C85.7143 63.4296 85.7143 69.4304 83.3786 74.0139C81.3243 78.0461 78.0461 81.3243 74.0139 83.3786C69.4304 85.7143 63.4297 85.7143 51.4286 85.7143H48.5714C36.5704 85.7143 30.5697 85.7143 25.9859 83.3786C21.9539 81.3243 18.6757 78.0461 16.6213 74.0139C14.2857 69.4304 14.2857 63.4296 14.2857 51.4286V48.5714ZM48.5714 21.4286H51.4286C57.5472 21.4286 61.7061 21.4341 64.9211 21.6968C68.0529 21.9526 69.6543 22.4164 70.7714 22.9856C73.4593 24.3552 75.6446 26.5407 77.0143 29.2286C77.5836 30.3457 78.0475 31.9471 78.3032 35.0789C78.5657 38.2939 78.5714 42.4529 78.5714 48.5714V51.4286C78.5714 57.5471 78.5657 61.7061 78.3032 64.9211C78.0475 68.0529 77.5836 69.6543 77.0143 70.7714C75.6446 73.4593 73.4593 75.6446 70.7714 77.0143C69.6543 77.5836 68.0529 78.0475 64.9211 78.3032C61.7061 78.5657 57.5472 78.5714 51.4286 78.5714H48.5714C42.4529 78.5714 38.2939 78.5657 35.0789 78.3032C31.9471 78.0475 30.3457 77.5836 29.2286 77.0143C26.5407 75.6446 24.3553 73.4593 22.9856 70.7714C22.4164 69.6543 21.9526 68.0529 21.6968 64.9211C21.4341 61.7061 21.4286 57.5471 21.4286 51.4286V48.5714C21.4286 42.4529 21.4341 38.2939 21.6968 35.0789C21.9526 31.9471 22.4164 30.3457 22.9856 29.2286C24.3553 26.5407 26.5407 24.3552 29.2286 22.9856C30.3457 22.4164 31.9471 21.9526 35.0789 21.6968C38.2939 21.4341 42.4529 21.4286 48.5714 21.4286Z" fill="#0C0E0C"/>
<defs>
<radialGradient id="paint0_radial_1_45" cx="0" cy="0" r="1" gradientUnits="userSpaceOnUse" gradientTransform="translate(35.7143 75) rotate(-55.3758) scale(91.1414)">
<stop stop-color="#A08B63"/>
<stop offset="0.79309" stop-color="#A08B63"/>
<stop offset="1" stop-color="#A08B63"/>
</radialGradient>
</defs>
</svg>
