<?xml version="1.0" encoding="UTF-8"?>
<svg id="Layer_2" xmlns="http://www.w3.org/2000/svg" version="1.1" viewBox="0 0 73.2 90.1">
  <!-- Generator: Adobe Illustrator 30.2.1, SVG Export Plug-In . SVG Version: 2.1.1 Build 1)  -->
  <defs>
    <style>
      .st0 {
        fill: #fff;
      }
    </style>
  </defs>
  <g id="Layer_1-2">
    <path class="st0" d="M59.1-70.3h-2.8v-10.8c0-12.9-9.3-23-22.6-23s-22.4,10.3-22.4,23v10.7h0q0,0,0,0h-2.8c-6.2,0-11.2,5-11.3,11.3V-25.3c0,6.2,5,11.2,11.3,11.3h50.6c6.2,0,11.2-5,11.3-11.3v-33.8c0-6.2-5.1-11.2-11.3-11.2ZM16.9-70.3v-10.8c0-9.6,6.6-17.4,16.8-17.4s17,7.6,17,17.4v10.7h0q0,0,0,0H16.9ZM64.7-25.3c0,3.1-2.5,5.6-5.6,5.6H8.5c-3.1,0-5.6-2.5-5.6-5.6v-33.8c0-3.1,2.5-5.6,5.6-5.6h50.6c3.1,0,5.6,2.5,5.6,5.6V-25.3ZM39.4-47.8c0,2.1-1.1,3.9-2.8,4.9h0,0v9.2c0,1.6-1.3,2.8-2.8,2.8s-2.8-1.3-2.8-2.8v-9.2h0,0c-1.7-1-2.8-2.8-2.8-4.9,0-3.1,2.5-5.6,5.6-5.6,3.1,0,5.6,2.4,5.6,5.6Z"/>
  </g>
</svg>