<svg width="100" height="100" viewBox="0 0 100 100" fill="none" xmlns="http://www.w3.org/2000/svg">
<path d="M16.6667 0C7.4619 0 0 7.4619 0 16.6667V83.3333C0 92.5381 7.4619 100 16.6667 100H83.3333C92.5381 100 100 92.5381 100 83.3333V16.6667C100 7.4619 92.5381 0 83.3333 0H16.6667ZM21.6332 21.4286H40.532L53.9528 40.4995L70.2381 21.4286H76.1905L56.6406 44.3173L80.7478 78.5714H61.8536L46.2797 56.4453L27.3809 78.5714H21.4285L43.5919 52.6274L21.6332 21.4286ZM30.7478 26.1905L64.3369 73.8095H71.6332L38.0441 26.1905H30.7478Z" fill="#A08B63"/>
</svg>
